<svg width="1280" height="720" viewBox="0 0 1280 720" fill="none" xmlns="http://www.w3.org/2000/svg">
  <rect width="1280" height="720" fill="#0B0B0C"/>
  <rect x="48" y="48" width="1184" height="624" rx="28" fill="#111114" stroke="#F5F2EB" stroke-width="2"/>
  <rect x="96" y="96" width="342" height="528" rx="20" fill="#1B1B21" stroke="#2B6CB0" stroke-width="3"/>
  <rect x="476" y="96" width="708" height="120" rx="20" fill="#1B1B21" stroke="#E53E3E" stroke-width="3"/>
  <rect x="476" y="244" width="708" height="168" rx="20" fill="#1B1B21" stroke="#D69E2E" stroke-width="3"/>
  <rect x="476" y="440" width="708" height="184" rx="20" fill="#1B1B21" stroke="#F5F2EB" stroke-width="3"/>

  <text x="140" y="170" fill="#F5F2EB" font-family="Arial, Helvetica, sans-serif" font-size="42" font-weight="700">AI Resume</text>
  <text x="140" y="220" fill="#F5F2EB" font-family="Arial, Helvetica, sans-serif" font-size="42" font-weight="700">Builder</text>
  <text x="140" y="270" fill="#A3A3A3" font-family="Arial, Helvetica, sans-serif" font-size="20">Conversational inputs</text>
  <text x="140" y="304" fill="#A3A3A3" font-family="Arial, Helvetica, sans-serif" font-size="20">Live templates</text>
  <text x="140" y="338" fill="#A3A3A3" font-family="Arial, Helvetica, sans-serif" font-size="20">Drag-and-drop ordering</text>
  <text x="140" y="372" fill="#A3A3A3" font-family="Arial, Helvetica, sans-serif" font-size="20">Offline Ollama AI</text>

  <rect x="526" y="132" width="170" height="24" rx="12" fill="#E53E3E"/>
  <rect x="714" y="132" width="120" height="24" rx="12" fill="#2B6CB0"/>
  <rect x="852" y="132" width="154" height="24" rx="12" fill="#D69E2E"/>
  <rect x="1024" y="132" width="132" height="24" rx="12" fill="#F5F2EB"/>

  <text x="528" y="298" fill="#F5F2EB" font-family="Arial, Helvetica, sans-serif" font-size="28" font-weight="700">Template Preview</text>
  <rect x="528" y="320" width="620" height="24" rx="12" fill="#2B2B33"/>
  <rect x="528" y="356" width="430" height="24" rx="12" fill="#2B2B33"/>
  <rect x="528" y="492" width="220" height="24" rx="12" fill="#E53E3E"/>
  <rect x="768" y="492" width="220" height="24" rx="12" fill="#2B6CB0"/>
  <rect x="1008" y="492" width="140" height="24" rx="12" fill="#D69E2E"/>
  <text x="528" y="560" fill="#A3A3A3" font-family="Arial, Helvetica, sans-serif" font-size="18">FastAPI backend • TypeScript frontend • Multi-format export</text>
</svg>
