<svg width="1280" height="720" viewBox="0 0 1280 720" fill="none" xmlns="http://www.w3.org/2000/svg">
  <rect width="1280" height="720" fill="#0B0B0C"/>
  <rect x="48" y="48" width="1184" height="624" rx="28" fill="#111114" stroke="#F5F2EB" stroke-width="2"/>
  <rect x="96" y="96" width="382" height="528" rx="20" fill="#1B1B21" stroke="#D69E2E" stroke-width="3"/>
  <rect x="516" y="96" width="668" height="120" rx="20" fill="#1B1B21" stroke="#2B6CB0" stroke-width="3"/>
  <rect x="516" y="244" width="668" height="168" rx="20" fill="#1B1B21" stroke="#E53E3E" stroke-width="3"/>
  <rect x="516" y="440" width="668" height="184" rx="20" fill="#1B1B21" stroke="#F5F2EB" stroke-width="3"/>

  <text x="140" y="170" fill="#F5F2EB" font-family="Arial, Helvetica, sans-serif" font-size="44" font-weight="700">LAIKA</text>
  <text x="140" y="220" fill="#F5F2EB" font-family="Arial, Helvetica, sans-serif" font-size="28" font-weight="700">Local AI Knowledge</text>
  <text x="140" y="258" fill="#F5F2EB" font-family="Arial, Helvetica, sans-serif" font-size="28" font-weight="700">Assistant</text>
  <text x="140" y="314" fill="#A3A3A3" font-family="Arial, Helvetica, sans-serif" font-size="20">Hybrid search with citations</text>
  <text x="140" y="348" fill="#A3A3A3" font-family="Arial, Helvetica, sans-serif" font-size="20">Private document Q&amp;A</text>
  <text x="140" y="382" fill="#A3A3A3" font-family="Arial, Helvetica, sans-serif" font-size="20">Multi-turn streaming chat</text>

  <rect x="558" y="132" width="138" height="24" rx="12" fill="#E53E3E"/>
  <rect x="714" y="132" width="120" height="24" rx="12" fill="#2B6CB0"/>
  <rect x="852" y="132" width="164" height="24" rx="12" fill="#D69E2E"/>
  <rect x="1034" y="132" width="130" height="24" rx="12" fill="#F5F2EB"/>

  <text x="560" y="298" fill="#F5F2EB" font-family="Arial, Helvetica, sans-serif" font-size="28" font-weight="700">Document Index</text>
  <rect x="560" y="320" width="582" height="24" rx="12" fill="#2B2B33"/>
  <rect x="560" y="356" width="452" height="24" rx="12" fill="#2B2B33"/>
  <rect x="560" y="492" width="220" height="24" rx="12" fill="#E53E3E"/>
  <rect x="800" y="492" width="220" height="24" rx="12" fill="#2B6CB0"/>
  <rect x="1040" y="492" width="122" height="24" rx="12" fill="#D69E2E"/>
  <text x="560" y="560" fill="#A3A3A3" font-family="Arial, Helvetica, sans-serif" font-size="18">FastAPI • React • ChromaDB • SQLite FTS5 • Ollama</text>
</svg>
